<svg id="visual" viewBox="0 0 900 600" width="900" height="600" xmlns="http://www.w3.org/2000/svg" xmlns:xlink="http://www.w3.org/1999/xlink" version="1.1"><rect x="0" y="0" width="900" height="600" fill="#F8FFF8"></rect><defs><linearGradient id="grad1_0" x1="33.3%" y1="0%" x2="100%" y2="100%"><stop offset="20%" stop-color="#ebebeb" stop-opacity="1"></stop><stop offset="80%" stop-color="#ebebeb" stop-opacity="1"></stop></linearGradient></defs><defs><linearGradient id="grad1_1" x1="33.3%" y1="0%" x2="100%" y2="100%"><stop offset="20%" stop-color="#ebebeb" stop-opacity="1"></stop><stop offset="80%" stop-color="#f8fff8" stop-opacity="1"></stop></linearGradient></defs><defs><linearGradient id="grad2_0" x1="0%" y1="0%" x2="66.7%" y2="100%"><stop offset="20%" stop-color="#ebebeb" stop-opacity="1"></stop><stop offset="80%" stop-color="#ebebeb" stop-opacity="1"></stop></linearGradient></defs><defs><linearGradient id="grad2_1" x1="0%" y1="0%" x2="66.7%" y2="100%"><stop offset="20%" stop-color="#f8fff8" stop-opacity="1"></stop><stop offset="80%" stop-color="#ebebeb" stop-opacity="1"></stop></linearGradient></defs><g transform="translate(900, 0)"><path d="M0 432.7C-57 426.8 -113.9 421 -165.6 399.7C-217.2 378.4 -263.6 341.7 -299.1 299.1C-334.6 256.5 -359.3 208.1 -379.7 157.3C-400.2 106.5 -416.4 53.2 -432.7 0L0 0Z" fill="#f1f5f1"></path><path d="M0 216.3C-28.5 213.4 -57 210.5 -82.8 199.9C-108.6 189.2 -131.8 170.8 -149.6 149.6C-167.3 128.3 -179.6 104.1 -189.9 78.6C-200.1 53.2 -208.2 26.6 -216.3 0L0 0Z" fill="#ebebeb"></path></g><g transform="translate(0, 600)"><path d="M0 -432.7C46.6 -405.7 93.1 -378.7 150.4 -363.1C207.7 -347.4 275.6 -343.1 305.9 -305.9C336.2 -268.8 328.8 -198.8 343.7 -142.4C358.5 -85.9 395.6 -42.9 432.7 0L0 0Z" fill="#f1f5f1"></path><path d="M0 -216.3C23.3 -202.9 46.6 -189.4 75.2 -181.5C103.8 -173.7 137.8 -171.5 153 -153C168.1 -134.4 164.4 -99.4 171.8 -71.2C179.3 -42.9 197.8 -21.5 216.3 0L0 0Z" fill="#ebebeb"></path></g></svg>