<?xml version="1.0" encoding="UTF-8" standalone="no"?>
<!-- Created with Inkscape (http://www.inkscape.org/) -->

<svg
   width="15.742623mm"
   height="20.990183mm"
   viewBox="0 0 59.49968 79.332976"
   version="1.1"
   id="svg5"
   xml:space="preserve"
   xmlns="http://www.w3.org/2000/svg"
   xmlns:svg="http://www.w3.org/2000/svg"><defs
     id="defs2" /><g
     id="layer1"
     transform="translate(-178.43017,-261.86747)"><path
       d="m 193.30488,279.222 c 0,14.87487 14.87488,17.35418 14.87488,29.74975 0,4.95829 -4.95829,12.39556 -12.39556,12.39556 -7.43728,0 -12.39573,-7.4376 -7.43744,-19.83317 -7.4376,4.95829 -9.91658,9.91658 -9.91658,14.87488 0,12.39589 12.39556,24.79145 29.74958,24.79145 17.35401,0 29.74974,-7.43727 29.74974,-22.31247 0.11073,-22.00242 -25.3529,-29.35226 -32.22914,-39.66633 -4.95845,-7.4376 -2.47914,-12.39589 2.47915,-17.35418 -9.91633,2.47964 -14.87487,9.42125 -14.87487,17.35451 z"
       id="path1049-7"
       style="fill:#25a55f;fill-opacity:1;stroke-width:0.0826381" /></g></svg>
