<svg id="visual" viewBox="0 0 900 600" width="900" height="600" xmlns="http://www.w3.org/2000/svg" xmlns:xlink="http://www.w3.org/1999/xlink" version="1.1"><rect x="0" y="0" width="900" height="600" fill="#e6e6e6"></rect><path d="M0 200L150 231L300 268L450 203L600 254L750 185L900 268L900 601L750 601L600 601L450 601L300 601L150 601L0 601Z" fill="#2ecf77"></path><path d="M0 363L150 303L300 297L450 347L600 333L750 327L900 357L900 601L750 601L600 601L450 601L300 601L150 601L0 601Z" fill="#28b267"></path><path d="M0 433L150 367L300 431L450 472L600 460L750 442L900 435L900 601L750 601L600 601L450 601L300 601L150 601L0 601Z" fill="#229657"></path><path d="M0 488L150 507L300 483L450 502L600 451L750 536L900 496L900 601L750 601L600 601L450 601L300 601L150 601L0 601Z" fill="#1c7b47"></path></svg>