<?xml version="1.0" encoding="UTF-8" standalone="no"?>
<!-- Created with Inkscape (http://www.inkscape.org/) -->

<svg
   width="93.791901mm"
   height="21.526545mm"
   viewBox="0 0 354.48908 81.36017"
   version="1.1"
   id="svg5"
   xml:space="preserve"
   xmlns="http://www.w3.org/2000/svg"
   xmlns:svg="http://www.w3.org/2000/svg"><defs
     id="defs2" /><g
     id="layer1"
     transform="translate(-83.910428,-112.08814)"><g
       id="g15319"><path
         d="m 98.785136,131.46986 c 0,14.87487 14.874874,17.35418 14.874874,29.74975 0,4.95829 -4.95829,12.39556 -12.39556,12.39556 -7.437273,0 -12.39573,-7.4376 -7.437438,-19.83317 -7.437602,4.95829 -9.916582,9.91658 -9.916582,14.87488 0,12.39589 12.395561,24.79145 29.74958,24.79145 17.35401,0 29.74974,-7.43727 29.74974,-22.31247 0.11073,-22.00242 -25.3529,-29.35226 -32.22914,-39.66633 -4.95845,-7.4376 -2.47914,-12.39589 2.47915,-17.35418 -9.91633,2.47964 -14.874871,9.42125 -14.874871,17.35451 z"
         id="path1049"
         style="fill:#25a55f;fill-opacity:1;stroke-width:0.0826381" /><text
         xml:space="preserve"
         style="font-size:38.8991px;fill:#181818;fill-opacity:1;stroke:none;stroke-width:3.44274;stroke-opacity:0"
         x="190.18604"
         y="137.95491"
         id="text2359"
         transform="scale(0.96883012,1.0321727)"><tspan
           id="tspan2357"
           x="190.18604"
           y="137.95491"
           style="font-style:normal;font-variant:normal;font-weight:bold;font-stretch:normal;font-family:'Segoe UI';-inkscape-font-specification:'Segoe UI Bold';letter-spacing:3px;fill:#181818;fill-opacity:1;stroke:#000000;stroke-width:3.44274;stroke-opacity:0">SOLETTI</tspan><tspan
           x="190.18604"
           y="187.02908"
           id="tspan2361"
           style="font-style:normal;font-variant:normal;font-weight:normal;font-stretch:normal;font-size:26.6667px;font-family:'Segoe UI';-inkscape-font-specification:'Segoe UI';letter-spacing:3px;fill:#181818;fill-opacity:1;stroke:none;stroke-width:3.44274;stroke-opacity:0">Heiztechnik GmbH</tspan></text><rect
         style="fill:#181818;fill-opacity:1;stroke:none;stroke-width:0;stroke-dasharray:none;stroke-dashoffset:0;stroke-opacity:0"
         id="rect7046"
         width="2.012563"
         height="80"
         x="162"
         y="112.74999" /></g></g></svg>
