<?xml version="1.0" standalone="no"?>
<!DOCTYPE svg PUBLIC "-//W3C//DTD SVG 20010904//EN"
 "http://www.w3.org/TR/2001/REC-SVG-20010904/DTD/svg10.dtd">
<svg version="1.0" xmlns="http://www.w3.org/2000/svg"
 width="208.000000pt" height="208.000000pt" viewBox="0 0 208.000000 208.000000"
 preserveAspectRatio="xMidYMid meet">
<metadata>
Created by potrace 1.14, written by Peter Selinger 2001-2017
</metadata>
<g transform="translate(0.000000,208.000000) scale(0.100000,-0.100000)"
fill="#000000" stroke="none">
<path d="M660 1695 c-197 -26 -199 -27 -314 -191 -80 -113 -86 -117 -121 -104
-33 12 -112 15 -144 5 -28 -9 -45 -49 -31 -76 11 -20 26 -25 99 -34 24 -2 46
-6 48 -8 1 -2 -9 -31 -23 -64 -21 -49 -32 -62 -59 -72 -42 -15 -82 -90 -89
-166 -3 -27 -9 -79 -13 -115 -6 -62 -9 -287 -3 -360 1 -19 6 -58 12 -86 11
-61 10 -61 175 -60 l107 1 10 33 9 33 61 -6 c34 -3 88 -10 121 -14 79 -11 89
-9 95 20 5 22 9 24 55 22 97 -4 701 -3 745 1 58 5 80 -1 80 -24 0 -19 22 -32
43 -25 6 2 35 6 62 9 28 3 78 8 112 11 l62 7 9 -33 8 -34 127 1 c97 0 131 3
142 15 18 18 28 120 28 284 0 314 -30 453 -107 486 -22 10 -39 30 -60 72 -15
32 -26 60 -24 62 5 5 57 13 91 14 56 2 83 67 40 99 -25 18 -114 19 -161 1 -32
-12 -40 -5 -120 110 -37 53 -77 106 -90 118 -26 24 -103 53 -161 60 -20 3 -63
8 -96 13 -95 12 -618 9 -725 -5z"/>
</g>
</svg>
